<svg xmlns="http://www.w3.org/2000/svg" viewBox="0 0 48 48" width="48" height="48" fill="none"><path fill="#FF3B30" fill-rule="evenodd" d="M43.745 24.057a8.948 8.948 0 0 0-4.851-5.958 7.4 7.4 0 0 0-3.195-.643.201.201 0 0 1-.18-.309c.57-.939.921-1.994 1.029-3.086a8.958 8.958 0 0 0-2.732-7.203 8.231 8.231 0 0 0-3.37-2.022c-2.212-.664-3.956-.324-4.902.952a4.63 4.63 0 0 0-.829 2.572 4.29 4.29 0 0 0 .68 2.768 3.261 3.261 0 0 0 2.263 1.322 3.202 3.202 0 0 0 2.464-.797 3.116 3.116 0 0 0 1.03-2.248.89.89 0 0 0-.747-.911.849.849 0 0 0-.952.844 1.398 1.398 0 0 1-.478 1.029 1.483 1.483 0 0 1-1.142.375 1.542 1.542 0 0 1-1.065-.622 2.655 2.655 0 0 1-.37-1.693 3.01 3.01 0 0 1 .514-1.651c.664-.89 2.197-.597 3.05-.34a6.54 6.54 0 0 1 2.67 1.61 7.328 7.328 0 0 1 2.229 5.798 6.281 6.281 0 0 1-3.257 4.734l-.041.03-.221.129a.515.515 0 0 1-.67-.134 8.535 8.535 0 0 0-13.375 0 .514.514 0 0 1-.664.134l-.221-.129-.041-.03a6.292 6.292 0 0 1-3.257-4.734 7.362 7.362 0 0 1 2.227-5.798 6.555 6.555 0 0 1 2.676-1.61c.854-.257 2.387-.556 3.05.34.33.487.51 1.062.515 1.651.069.59-.06 1.184-.365 1.693a1.544 1.544 0 0 1-1.065.622 1.47 1.47 0 0 1-1.147-.375 1.4 1.4 0 0 1-.479-1.03.848.848 0 0 0-.952-.843.89.89 0 0 0-.746.91 3.121 3.121 0 0 0 2.177 2.909c.424.137.873.184 1.317.137a3.252 3.252 0 0 0 2.279-1.296 4.27 4.27 0 0 0 .684-2.763 4.697 4.697 0 0 0-.828-2.572c-.952-1.276-2.691-1.616-4.903-.952a8.2 8.2 0 0 0-3.37 2.022 8.94 8.94 0 0 0-2.732 7.202 7.331 7.331 0 0 0 1.03 3.087.202.202 0 0 1-.075.285.2.2 0 0 1-.106.024 7.393 7.393 0 0 0-3.19.643 8.967 8.967 0 0 0-4.856 5.957 8.278 8.278 0 0 0-.067 3.931c.514 2.248 1.698 3.601 3.277 3.766.139.01.278.01.417 0a4.928 4.928 0 0 0 2.232-.597 4.244 4.244 0 0 0 2.058-1.97 3.245 3.245 0 0 0 0-2.619 3.185 3.185 0 0 0-1.924-1.739 3.138 3.138 0 0 0-2.464.221.89.89 0 0 0-.417 1.107.849.849 0 0 0 1.204.4 1.394 1.394 0 0 1 1.147-.112 1.482 1.482 0 0 1 1.023 1.422c0 .212-.043.42-.127.615-.284.52-.736.93-1.281 1.163a2.963 2.963 0 0 1-1.678.4c-1.106-.128-1.615-1.604-1.82-2.474a6.539 6.539 0 0 1 .06-3.117 7.316 7.316 0 0 1 3.91-4.831 6.286 6.286 0 0 1 5.722.453l.267.154a.514.514 0 0 1 .216.643 8.555 8.555 0 0 0 7.141 11.627v.597a.78.78 0 0 0 0 .154 6.271 6.271 0 0 1-2.47 5.186 7.353 7.353 0 0 1-6.142.983 6.575 6.575 0 0 1-2.742-1.544c-.654-.612-1.677-1.795-1.235-2.814a2.973 2.973 0 0 1 1.183-1.255 2.66 2.66 0 0 1 1.647-.515 1.544 1.544 0 0 1 1.075.607 1.49 1.49 0 0 1 .013 1.72 1.415 1.415 0 0 1-.435.4.844.844 0 0 0-.216 1.291.89.89 0 0 0 1.127.14 3.118 3.118 0 0 0 1.42-2.023 3.185 3.185 0 0 0-.54-2.53 3.268 3.268 0 0 0-2.28-1.297 4.234 4.234 0 0 0-2.731.792 4.599 4.599 0 0 0-1.822 2.006c-.633 1.461-.051 3.139 1.626 4.723a8.195 8.195 0 0 0 3.437 1.904 9.3 9.3 0 0 0 2.53.35 8.68 8.68 0 0 0 5.058-1.575 7.29 7.29 0 0 0 2.15-2.449.21.21 0 0 1 .366 0 7.305 7.305 0 0 0 2.155 2.45 8.652 8.652 0 0 0 5.053 1.573c.855.001 1.707-.116 2.53-.35a8.195 8.195 0 0 0 3.437-1.903c1.683-1.584 2.259-3.262 1.626-4.723a4.63 4.63 0 0 0-1.816-2.006 4.26 4.26 0 0 0-2.737-.792 3.246 3.246 0 0 0-2.274 1.296 3.164 3.164 0 0 0-.54 2.531 3.086 3.086 0 0 0 1.42 2.022.89.89 0 0 0 1.127-.139.854.854 0 0 0-.217-1.291 1.38 1.38 0 0 1-.668-.942 1.471 1.471 0 0 1 .247-1.178 1.542 1.542 0 0 1 1.07-.607c.59-.017 1.17.164 1.646.515.511.292.925.729 1.188 1.255.438 1.029-.586 2.202-1.234 2.814a6.595 6.595 0 0 1-2.732 1.508 7.351 7.351 0 0 1-6.138-.973 6.299 6.299 0 0 1-2.47-5.18v-.31a.515.515 0 0 1 .448-.514 8.57 8.57 0 0 0 7.275-8.422 8.48 8.48 0 0 0-.587-3.086.515.515 0 0 1 .217-.643l.272-.16a6.296 6.296 0 0 1 5.726-.453 7.337 7.337 0 0 1 3.905 4.831 6.538 6.538 0 0 1 .052 3.113c-.206.87-.716 2.346-1.817 2.474a2.968 2.968 0 0 1-1.682-.401 2.633 2.633 0 0 1-1.28-1.163 1.544 1.544 0 0 1 0-1.23 1.483 1.483 0 0 1 .894-.807c.354-.119.74-.093 1.076.072a.926.926 0 0 0 1.142-.144.844.844 0 0 0-.222-1.286 3.128 3.128 0 0 0-2.52-.257 3.173 3.173 0 0 0-1.92 1.713 3.245 3.245 0 0 0 0 2.618 4.26 4.26 0 0 0 2.058 1.97 4.589 4.589 0 0 0 2.65.572c1.574-.18 2.742-1.544 3.272-3.766a8.231 8.231 0 0 0-.057-3.925ZM24 17.132a6.853 6.853 0 0 1 5.068 2.243.514.514 0 0 1-.129.797l-4.424 2.573a1.029 1.029 0 0 1-1.03 0l-4.424-2.573a.514.514 0 0 1-.123-.797A6.843 6.843 0 0 1 24 17.132Zm-6.868 6.883c.002-.698.11-1.392.319-2.057a.513.513 0 0 1 .751-.288l4.435 2.572a1.029 1.029 0 0 1 .514.89v5.114a.514.514 0 0 1-.628.514 6.878 6.878 0 0 1-5.391-6.745Zm13.736 0a6.873 6.873 0 0 1-5.386 6.688.514.514 0 0 1-.623-.514V25.08a1.03 1.03 0 0 1 .515-.89l4.43-2.572a.515.515 0 0 1 .75.293c.214.681.32 1.391.314 2.104Z" clip-rule="evenodd"/><path fill="#FF3B30" fill-rule="evenodd" d="M24 0C10.745 0 0 10.745 0 24s10.745 24 24 24 24-10.745 24-24S37.255 0 24 0ZM1.698 24C1.698 11.683 11.683 1.698 24 1.698S46.302 11.683 46.302 24 36.317 46.302 24 46.302 1.698 36.317 1.698 24Z" clip-rule="evenodd"/><path fill="#FF3B30" d="M7.091 13.472a1.543 1.543 0 1 1 1.715 2.566 1.543 1.543 0 0 1-1.715-2.566ZM40.052 13.212a1.543 1.543 0 1 0 0 3.086 1.543 1.543 0 0 0 0-3.086ZM24 40.993a1.543 1.543 0 1 0 0 3.087 1.543 1.543 0 0 0 0-3.087Z"/></svg>