<svg xmlns="http://www.w3.org/2000/svg" width="1366" height="4" fill="none"><path fill="rgba(128, 128, 128, 0.5)" d="M676.462 1.574c.237.076.697.174 1.035.135 1.332-.153 2.431-.135 3.913-.45L686.5 1l6.24.034v-.18h.045v.045c.118.102.086.115.315.135l2.385-.135c2.274-.537 5.764.383 8.774 0 .063.126-.041.068.09.135.064-.164-.027-.07.135-.135.196.146.66-.02 1.08.045l.435-.015.869-.03c.369.06.761.175 1.17.09l.495-.135c.428.073 1.369 0 1.89.135.53.137 1.161.284 1.755.36 1.061.137 2.048-.008 3.014.225.909.22 1.923-.077 2.655.045.978.164 2.294-.305 3.33-.045.302-.086.765-.202 1.125-.135.536.102 1.88.019 2.744 0 .139-.003.406-.122.585-.09 1.337.239 3.579.34 4.995.045l.24.03.48.06c.975.017 1.745-.02 2.744.045 1.865.12 3.869-.201 5.67.045.284.039.981-.15 1.125-.18.108-.023.276.128.495.09.319-.055 1.079-.17 1.349-.135 2.075.26 4.45.177 6.75.09.312-.012.825.182 1.214.135 2.44-.287 3.996.003 5.985-.27l2.475.09c.402-.069 1.256-.053 1.668-.046h.041c.954.018 2.227-.381 3.195-.223 1.586.256 4.497.242 6.299 0l1.257.044h2.343c.109.025.205.115.405.09 3.6-.451 8.754.794 12.149.406 1.193-.137 3.004.403 3.959-.046.036.036 1.979.15 2.115.09.063-.067.047-.08.135-.135.365.418 1.944.207 2.61.18l2.114-.225 2.835.045c.502-.09 1.086-.132 1.395-.045l3.194.045c.05-.145-.013-.057.09-.135.514.302 1.326-.104 1.935-.045 1.581.153 3.42-.2 4.77.09h.945c1.406.304 3.004-.04 4.904.09 1.971.135 4.499.218 6.659.315 1.815.082 3.473-.59 5.31-.315l1.125-.09c2.339.294 4.295-.5 6.479-.045.672.14 1.43-.084 1.98-.045.234.017.886.125 1.215.18l.719-.09c.325-.05.635.026.855.09l.72-.045c.423.017 1.225.068 1.53.136.513.112.702-.198 1.26.044.299-.212 1.417.14 1.89-.044.338-.132 2.524-.14 3.644.044l1.35-.09.675-.045c.807.113 2.135-.448 2.79-.09.622-.271 1.58.039 2.565-.045 1.135-.096 3.092.175 4.229.045l2.07.09c.479-.11 1.422.094 2.385.045.23-.012.617.173.899.046.193.074.899.18 1.305.089.828-.186 2.525.025 3.735-.18h1.62c1.266-.251 2.297-.03 3.914-.225.695-.084 2.021-.264 3.015-.405.463-.066 1.237.136 1.845.136.05-.146-.013-.058.09-.136.348.444 1.811-.035 2.114 0 .959.113 1.916-.102 2.925-.225.802-.098 2.074.013 2.925-.135l.9.09c1.282-.15 3.135.277 4.814.09.629-.07 1.719-.122 2.7.045l.21-.03.42-.06c.27.1.419-.038.81 0 .618.06 1.156 0 1.845.135.89.173 1.941.023 2.654 0 .346-.012.984.203 1.395.27.271.044.915-.156 1.17-.09.593.153 1.371.15 1.98.18l.72-.045c1.298.384 2.667.34 3.914.135.354-.058.8.305 1.305.225a5.249 5.249 0 0 1 1.845.045c.51.098 1.157-.107 1.575-.18.435-.076 1.098.124 1.8 0 .014.13-.056.118.134.135.2.053.729-.1.945-.09 1.023.042 2.258.043 3.15.226.568.115 1.051-.226 1.62-.046.103-.032 1.669-.18 1.89-.135.901.184 1.73.08 2.744.045 1.415-.048 3.066.306 4.23.045h1.26c.108.01.112.147.27.135 1.34-.1 3.032.09 4.364-.09h.003l2.112.046c1.045-.076 2.091-.15 3.136-.225l.014-.001c.75-.083 1.295.015 1.889-.225v.18c.418-.107 1.27-.142 1.665-.18h.81c.5-.311 1.32.013 2.205-.27 1.481-.473 3.724-.323 5.489-.495l.374.045.751.09 1.71-.18c.926.015 2.06.116 2.97-.09h1.979c1.229-.122 2.761-.053 3.87-.225.768-.12 1.503.241 2.205-.089.065.164-.028.068.135.134.647.309 1.647-.07 2.204 0 1.384.173 3.523-.177 5.04.18l.63-.09c.769.137 2.989.516 3.869.225.464.158 1.112.099 1.755.135 1.509.083 3.501.31 4.995 0 .36-.075 1.644.186 2.114.225.316.027 1.312-.118 1.71-.18l1.305.09c.878.074 1.79-.233 2.385-.135.944.156 2.864.454 4.004.18.02.142-.07.052.05.135l1.62-.045c.23-.015.43-.141.72-.18.69-.093 1.19.123 2.11.045.16-.013.51-.108.58-.09.16.04.7.21.9.225.24.017.47-.151.54-.18.21-.074 1.18.005 1.44-.045.12-.021.31.087.45.09.74.015 1.4.023 2.12-.09l2.34.24 1.17.12c2.95-.001 7.11.202 10.26-.225.76-.102 1.54.005 2.29-.135.41-.076.79.07 1.08.135l.5-.135c.19-.04.3.073.4.09.28.045.7-.043.99-.09.81-.132 2.02.046 2.7.18l.2-.03.39-.06c1.15.19 2.52.346 3.87.18.01.045.03.09.04.135.16-.094 2.86-.042 3.55 0 .64.039 1.37-.034 1.99 0 .12-.03.24-.06.35-.09.76.089 1.75.094 2.66.18l.27-.09c.61.104 1.36.204 2.34.09 1.86-.216 3.99.082 5.31-.044.5-.048 1.56.342 2.25 0 .07.03.64.196.9.134 1.1-.262 3.29-.281 4.5-.134 1.13.135 2.1-.198 3.1-.046 2.91.44 6.14.605 8.51.315.54-.066 1.05.158 1.66.225.2.022 1.33-.116 1.44-.09.17.04.4.169.63.09.16-.054.15-.173.41-.225.1.29.84.34 1.17.18.75.352 3.38.266 4.18-.09.07-.076-.05-.054.09-.135.33.326 1.24-.132 1.85-.045 1.28.186 2.49.236 3.77 0h.95c.18-.058 3.22-.19 3.51-.045.88-.371 2.35-.193 3.37-.36.78-.126 2.85-.293 3.83-.09.45.094 1.19-.017 1.53-.135.07-.025 1.13.207 1.21.225 0 0 1.54.017 1.62 0l.08-.029.15-.061c.88.205 1.99.225 2.97.09l1.98.135c.33.045.74-.111 1.21-.045.42.057 1.52.087 2.21-.045l.63.09c.46.079 1.23-.043 1.48-.09.63-.118 1.6.078 1.98-.225.02.031.03.06.05.09v.045c.41.203.94-.05 1.44.045.13.026 1.23.194 1.44.135.1-.028.31-.146.54-.09.76.188 2.01.452 2.92.135v.09c.06-.066.04-.045.14-.09.12.313 1.88.25 2.52.36.51.088 1.02-.095 1.53-.09.22.002.52.13.72.18l.76-.225c.08-.028.57.152.72.18l1.08-.135c.05.145-.01.057.09.135.15-.091 2.66-.291 3.06-.18.11.03.13.164.36.135.65-.084 2.22-.074 3.24-.135.13-.007.3-.124.41-.09.71.238 1.77.294 2.65.225 2.59-.205 5.82-.25 8.68-.09v-.18h.09c.24.273 1.94.406 2.57.315l.63-.09c1.27.222 4.19.528 5.4.18.2-.058.34.062.45.09l1.93-.045c.02-.074.03-.15.05-.225h.22v.18c.42.266 1.63-.042 2.34-.045 1.2-.004 2.35-.1 3.56-.045.35.016.82-.246 1.3-.18.38.053.94-.046 1.58-.045 1.12 0 2.51.069 3.51 0l1.48.135c1.52-.085 2.57-.12 3.96-.045.26.014.62-.092.9-.135l1.67.045c.73-.152 2.31-.114 3.19 0l.07-.005 1.14-.084c.23.029.45.059.68.089.63.038 1.12-.008 1.53-.134.28-.086.33.1.58.089.27-.011.37-.14.59-.09.02-.141-.07-.051.05-.135.35.343 1.05-.212 1.52-.135.89.144 2.11.054 3.11-.135l.43.015.92.03c.8-.101 1.84.017 2.83.225l1.62-.135c.11.023.21.15.41.09.07-.021-.01-.163.13-.135 0 0 .18.168.23.18.14.038 1.57.047 1.57.045.54-.086 1.51-.272 2.16-.18 1.16.164 2.76.263 3.56.225 1.29-.061 2.54.452 3.82.046l.03.086.02.048c.98-.445 3.19.388 4.77.135l1.12-.135c.12.03.38.144.63.09 1.15-.248 2.76-.26 3.69-.045.41.093.86-.084 1.08-.134.5-.12 1.46.03 2.05.123l.07.01c.2.033.61-.106.76-.09.69.077 1.5.095 2.21.136l.53-.03.27-.015c.08.065.28.093.59.09.43.155 1.23-.114 1.53-.045.14.033.51.226.85.135.17-.045.28-.218.41-.18v.135c.82.106 2.89.289 3.28 0 0 0 1.59.078 1.8.045.37-.058.89-.185 1.17-.18l.27.135.86-.09c.85.15 2.09.095 2.92.27.13.027 1.76-.066 1.89-.09.11-.045.21-.09.32-.135 1.31.228 3.9.142 5.31-.09l.24.121.03.014 1.12-.09c.09.036.11.156.32.135 1.18-.116 2.52-.102 3.64.09.45.077 1.01-.171 1.53-.09 1.18.185 2.73.136 3.78.135.34 0 .73.056 1.08.135.31.069.74.005.9-.135.34.363 1.3.018 1.85.09 1.04.139 3.53-.18 4.41-.36.5-.104 1.87.026 2.43.135h2.02l.68-.18c.84.1 1.69.228 2.33.09l.27.09c.43.072 1.19.062 1.53-.045.07.165-.02.068.14.135.62.298 1.29-.006 1.93.09 1.08.16 3.17-.333 4.28 0l2.52-.09c.41.077.92.119 1.21.136.13.006.51-.141.59-.136.19.013.57.132.81.18l.94-.044c.64.138 1.99.12 2.52-.046l.77.046c.61-.076 1.1-.025 1.84-.136l.36.09c.66-.038 1.51-.088 2.07.046l.52-.088.02-.003c.96.06 2.1.009 2.84-.135 1.25-.245 2.87.375 4.27 0 .07.165-.03.068.14.135.69-.448 3.1.18 4.45-.135.34-.08 1.1.01 1.4-.045 2.66-.506 6.67.233 9.17-.18 1.63-.267 2.77.205 3.96-.225.02.015.03.03.05.045l-.09.18h.22c.15-.093.05-.055.23 0 .05-.184 0-.128.18-.18v.135l.14.014c.57.056 1.49.147 1.98-.058.54.189 1.4.292 1.84.134.8.229 2.46.329 3.06.225.3-.052 1.22.217 1.35 0 .03-.02 1.64.21 1.98.18 1.54-.14 3.48-.065 4.95-.27l.22.03.45.06c.98.02 1.67-.04 2.57.09.6.089 1.86-.092 2.38-.18.16-.026.53.195.72 0 .21.13 1.01.143 1.17.045.63.315 2.79.273 3.87.27l.02-.023c.06-.099.08-.144.21-.202.15.135 1.62.135 2.01.135h.01c.05-.103.04-.116.14-.18.06.142.04.117.18.18.17-.123.23.046.54 0 .35-.052 1.34.107 1.8-.045.23.076.69.174 1.03.135 1.33-.153 2.43-.135 3.91-.45.48-.1 1.09-.046 1.67-.092V2.74c-.16.034-.32.072-.45.094-.65.109-1.07-.021-1.66.09-.36.066-.73-.013-.9.225.01.016.03.03.04.045l-.11.022-.11.023a.161.161 0 0 1-.03-.09l-.02-.045c-.59.184-2.02.352-2.84.27l-1.3-.18c-1.89.225-5.19-.122-6.93.18-.01-.044-.03-.09-.04-.135l.22-.045c-1.22-.151-4.12-.314-5.26.136-.01-.181.07-.07-.05-.181-.28.156-.64-.015-1.03-.045l-.02-.002c-.37-.027-1.08-.08-1.51.047l-.03-.007c-.27-.063-.78-.183-1.14-.128l-.13.02c-.47.075-1.06.17-1.49.025v.316c-1.34-.042-3.08.19-4.19 0-.05.144.02.056-.09.134-.27-.298-1.16-.248-1.84-.18-.73.073-2.28-.118-3.2-.27h-1.39c-1.71-.176-4.79-.363-6.48-.09-.77.123-2.63-.103-2.97.225-.39.073-1.31-.218-1.84-.135l-.14.135c-.11.026-.15-.157-.22-.18h-2.34c-.71.089-1.85.072-2.66-.045-.22-.032-1.41.105-1.8.18l-.94-.045c-1.03-.011-1.84-.073-2.88.09-.82.129-1.65.192-2.57-.045-.57.184-1.35.14-1.93.045-.33-.054-.71.024-1.01.084l-.03.006c-.64.132-1.31-.02-1.84-.045-1.1-.051-2.5.257-3.47.136-.84-.107-1.82.239-2.52.134-.76-.115-1.4.04-2.2-.045a32.318 32.318 0 0 0-5.58-.09c-.35.023-1.27-.075-1.67-.135-.61-.092-1.45.07-1.94.165l-.08.015c-.44.084-1.11-.121-1.53-.09l-2.16-.18c-.48.098-1.39-.006-1.89-.135-.43-.11-1.53.017-1.89.135-.34-.125-1.7 0-2.16.09l-.63-.135c-.27-.053-1-.054-1.13-.045-.99.071-1.71.156-2.51.25l-.18.02c-.13-.03-.24-.06-.36-.09-.24.002-.47.073-.63.136h-1.4c-1.24.227-2.53.169-3.51 0-.84-.148-1.38.056-1.93.134-.22.03-.34-.184-.63-.134-.11.044-.21.089-.32.134-.06-.012-.28-.195-.4-.225-.99-.242-1.73.06-2.66-.045-1.83-.207-3.9-.181-6.03 0-.36.03-1.23-.116-1.66-.18l-.72.09c-.9-.016-1.89-.12-2.79.045-.48.088-1.04-.127-1.49-.045-.88.164-2.23.077-3.15-.135-.29-.07-.63.049-.81.09-.85.193-1.41-.077-2.2.045-.26.04-.5.2-.81.226-.03-.176-.02-.143-.32-.136-.46.235-1.37.012-1.93 0-1.41-.03-3.44-.3-4.73-.045v-.09l.03-.012c.02-.01.04-.022.07-.033-.29.028-.38-.033-.72-.045-.07.169.01.092-.18.135-.12-.09-2.02-.264-2.57-.135-.24.057-.89-.006-1.26-.09-.6-.137-2.37.106-2.61.18-.25-.311-1-.13-1.53-.18-.79-.074-1.92.306-2.74.045-.45.125-1.06.256-1.67.135-.97-.193-2.89-.258-4.14-.09l-.49-.135c-.42-.086-1.4-.031-1.76.09-.31-.1-1.61-.337-1.93-.09-.2-.12-1.25-.231-1.59-.267l-.03-.003-1.49.09c-.89-.153-2.08-.08-3.01.09l-.72-.18c-.72-.09-1.52.049-2.03.09-.6.05-1.21-.24-1.66-.315-.17-.03-.52.139-.63.135-.98-.038-2.11-.073-3.11.09-.19.032-.17-.088-.31-.09-.43-.004-1.57.05-1.89.18-.11.105-.03.094-.23.135-.22-.252-.52-.03-.81-.044l-2.35.086-.08.003c-3.16.088-6.29.09-9.4.09-.07.169.01.092-.18.135h-.04c-.24.004-1.13.017-1.35-.09-.21.087-1.55.236-2.03.135-.91-.19-2.02-.191-2.79-.09l-.38-.03-.79-.06c-.45-.068-.98.046-1.3.115l-.09.02c-.62.13-1.42-.01-2.03.18v-.135l-.22-.045c-.47.158-1.35-.024-1.98.045-1.51.168-2.81.009-4.37.27l-.4-.09c-.32-.06-.97.073-1.22.135v-.045l.09-.09c-.09-.014-.19-.027-.28-.04l-.03-.005c-.77.4-2.74-.08-3.87-.135-.14.045-.27.09-.41.135-.47-.178-.92-.163-1.35-.09-.35.06-.83-.164-1.21.045-.32-.146-.86-.196-1.17-.09-.72-.195-1.97-.228-2.84-.045l-2.88-.135c-.76-.03-1.7.165-2.61.045l-.01.06-.03.12c-.4-.153-1.99-.066-2.43.045-.06-.16-.01-.121-.18-.18-.18-.062-1.13-.165-1.57-.135l-.24.06-.12.03c-1.55-.14-4.11-.1-5.27.09-1.3.214-3.1-.26-4.23.09l-.51-.06-.25-.03-.43.03-.88.06c-.73-.165-1.64-.363-2.29-.135-.06-.207-.16-.2-.4-.184l-.05.004c-.28.102-1.18-.122-1.53-.135-.85-.033-2.15-.25-3.02 0l-.27-.135c-.29-.074-1.4-.032-1.53.045.02.03.03.06.05.09h-.18c-.09-.078-.99-.184-1.22-.135-.74.158-2.64-.183-3.28.18l-.05-.18c-1.33.36-3.77.058-5.53 0-.05.144.01.057-.09.135-.26-.321-.81-.02-1.22-.09-.7-.124-1.66 0-2.43-.09-.89-.106-1.51-.271-2.38-.135-.37.058-3.22.165-3.78 0-.35.102-.73.012-1.13.09-1.02.202-2.22.298-3.37.45l-.24-.081-.03-.01h-2.16c-1.08.213-1.87.038-2.61.406l-1.17-.225c-.65-.126-.91.178-1.57.09l-.23-.032-.4-.058c-.76.123-1.27.26-2.03.36h-1.26v.135c.02.03.03.06.05.09h-.09c-.35-.344-.83-.194-1.31-.27-.77-.122-2.02-.153-2.83-.044l-1.13-.091-1.35-.18c-.6.183-2.81.154-3.73 0-.71-.118-1.49.3-2.21.09-1.42-.415-3.37-.31-4.5-.36l-.18-.135c-.36-.098-.99.068-1.39.18-.14.04-.27-.172-.41-.135-.1.122.04.097-.18.135-.34-.27-.72.034-1.03 0-1.25-.135-3.69-.047-4.41.135l-.41-.09c-.39-.08-.71.064-.94.135v-.18c-.61.05-1.04-.055-1.49-.09-1.03-.081-1.72.132-2.65 0-.92-.13-1.92.289-2.65.135-.88-.184-2.37-.198-3.29-.09l-.81-.09h-2.38c-.4-.056-1.15-.073-1.31.09l-.54-.135-.15.032-.48.104-.08-.012c-.71-.112-1.48-.23-2.03-.124l-1.26-.135c-.44.079-1.02-.01-1.44-.09-.82-.155-2.34-.1-3.24.09-.08-.137-.05-.13-.23-.18-.39.194-1.13-.05-1.8.045-.97.14-2.22.043-3.28.225h-1.49c-.34.082-1.62.269-2.02.18-.19-.042-.52-.22-.95-.135-.91.18-3.03.19-4 0-.36-.07-.71.098-1.08 0-.95-.244-2.01-.084-2.79-.27l-.18.015-.36.03c-.37-.066-.91.023-1.17-.18-.16.155-2.16.192-2.52.135h-2.16c-1.23-.217-3.3-.12-4.72.135-.69.122-1.48-.333-1.8.135-.62-.391-1.67-.06-2.749-.27-.837-.164-1.837-.15-2.79 0-.256.04-1.442-.032-1.62-.09-.614.178-3.035.172-3.734.045l-.135.18a2.66 2.66 0 0 0-.855-.09c-.05.145.013.057-.09.135-.336-.344-.738-.048-1.17-.18-.05.145.013.057-.09.135-.164-.124-2.181-.258-2.34-.225-.089.019-.239.173-.405.135-.723-.165-1.67-.13-2.384-.36-.15-.048-.674.173-.945.136-1.417-.195-3.473-.461-4.86-.226-.084-.112-.394-.161-.495-.135-.154.05-.154.089-.315.135-.265-.255-.435-.121-.72 0l-.045-.135c-.146.047-.236-.09-.495-.045-.909.154-2.062.087-2.969 0l-.3.015-.6.03c-.166-.056-.79-.175-1.215-.09-1.265.253-2.425.052-3.78.27l-1.124-.09c-.795.089-2.04.32-2.79.135-.05.144.013.057-.09.136-.659-.47-2.607.216-3.6 0a5.756 5.756 0 0 0-.9-.091l-.315.136c-.032-.007-.191-.164-.27-.181-.5-.108-2.191.208-2.744.405-.485.173-1.018.015-1.53.135-1.345.316-2.558.007-3.51.45-.047.022-.403-.117-.63-.045-.935.296-2.143-.026-3.194.27-.951-.24-2.125.019-3.285.09-.276.017-.763-.091-1.17-.09-.979.005-1.839.105-2.474.046-.361-.035-.883.114-1.26-.091-.575.258-1.691-.01-2.565.09-1.223.138-3.418.123-4.455-.09h-4.139c-.467-.06-1.657.28-2.07.136-.713-.252-1.621-.136-2.25-.045-.281.04-.863-.233-1.26-.181-.162.02-.564.179-.719.135-.615-.171-1.439.172-2.07.046-.447-.09-1.302.072-1.62 0a2.632 2.632 0 0 0-1.305 0c-.12.027-.561-.162-.675-.226-.208.127-1.9.196-2.25.18-.716-.033-1.255-.288-1.979-.405-.263-.042-.621.069-.765.18-.379-.214-1.321-.241-1.8-.27l-.4.088-.005.002a32.665 32.665 0 0 0-1.71-.225l-.495.136c-1.931-.315-4.992-.431-6.614-.226-.452.058-1.133-.081-1.44-.135l-.675.09c-.987-.103-2.058-.147-2.834-.045-.648.085-1.569-.267-2.475-.135h-1.89c-.92.263-2.237.175-3.15.315-.251.039-.77-.2-1.124-.045l-.01.012-.126.169c-.321.098-.824-.127-1.214 0-.004.179.074.067-.045.179l-.094-.093a15.607 15.607 0 0 1-.176-.177l-.585.045s-1.369-.02-1.395 0l-.135.18c-.651-.356-1.333-.061-2.025.045l-.33-.03-.165-.015c-.14.034-.476.233-.765.18-.461-.084-1.053.167-1.485.135-1.113-.081-1.944-.023-2.789.136l-.27-.091h-.003l-1.482.046c-1.016.127-1.73-.18-2.43.045h-.09c-.004.179.074.067-.045.179-.075-.103-.093-.125-.225-.18-.125.105-.475.1-.81.09-.049.137-.023.11-.135.18l-.135-.18c-.129.092-.298.085-.45.045-.05.145.013.057-.09.135-.465-.391-2.571-.315-3.914-.36-.889-.03-2.088-.1-3.06-.045-.345.019-.997-.238-1.35-.135-.156.045-.16.163-.45.18-.177-.34-2.374-.062-3.239-.18l-.375.03-.75.06c-1.165-.047-2.386.21-3.465.045-.516-.078-1.126.312-1.575.09-.441.177-1.173.137-1.799.046-1.601-.236-4.029.18-5.85-.226l-1.394.09c-.808-.141-1.968.007-2.835-.09-1.981-.22-3.474-.184-5.265 0l-1.754-.045c-2.172.323-4.145.083-5.715.45l-.585-.09c-.381.05-.814.208-1.35.135-.278-.038-.906-.231-1.259-.09l-.045.135-.135-.135c-.341-.115-.716-.048-1.035-.045l-2.43-.134c-.803-.026-1.91.13-2.655 0-.497-.088-1.566-.103-1.8.134-.549-.385-1.246-.057-2.069-.225-.792-.161-2.464-.391-3.42-.045-.038-.118.031-.05-.09-.09-.359-.16-1.962-.002-2.385.226-.068-.17.014-.093-.18-.136-.272-.017-1.054.056-1.349.09l-.225-.09c-.495-.05-.924-.017-1.53 0-.498.015-.845.093-1.26 0-.706-.156-1.511.16-2.16-.045-.728.226-2.613.278-3.24.18l-1.124.27c-.472.124-3.08-.182-3.24-.27-.613.305-4.267.153-5.264.046-.188-.021-1.583.146-1.62.179-.27-.236-.847-.027-1.44-.135-1.294-.234-2.529-.026-3.915-.315-.051.145.013.057-.09.135-.19-.448-1.811-.22-2.384-.27-2.03-.18-4.293-.087-6.705-.135h-3.554l-1.125.045c-1.1-.198-2.379-.153-3.375.045-.767.153-1.857-.016-2.609.135l-.9-.045c-1.282.158-2.463-.136-3.555.045l-3.015.09c-.45.065-1.121-.05-1.215.135-.147.022-.735-.12-.854-.135-.555-.073-1.289.167-1.8.09-.561-.084-1.421.103-2.07-.045-.212-.048-.584-.092-.855-.045-.913.158-1.746-.317-2.61 0-.05-.145.013-.057-.09-.135-.416.127-2.134.185-3.014.135l-.495-.09c-1.284.09-2.996.199-4.14.045-.495-.066-.647.26-.99.18-.855-.2-2.872-.337-3.644-.135-.075.079-.077.12-.18.18-.234-.312-1.92-.028-2.565-.09l-.232-.023c-1.323-.129-2.817-.274-4.222-.067-.845.125-1.805-.198-2.385.18 0 0-.59-.207-.63-.225-.231-.1-.639.01-.99 0-.05.145.013.057-.09.135-.102-.165-.546-.101-.855-.09-.012.142.06.039-.045.135-.25-.233-1.459-.173-2.073-.142l-.132.007c-.94.045-4.521-.137-5.219-.495-.034.172-.013.147-.135.225-.201-.256-.88-.291-1.286-.312l-.064-.003-.405.135c-1.631-.483-3.584.19-5.759-.135-.231-.034-.414.074-.63.135-.627-.167-1.221-.187-1.8-.18l-.36.135c-2.09-.411-5.649-.246-8.009.136l-.99-.091c-1.744.243-4.387-.176-6.119.09-.399.06-1.037-.032-1.305-.09-.338-.073-.55-.026-.845.04-.164.035-.319.073-.451.095-.65.109-1.067-.021-1.664.09-.351.066-.729-.013-.9.225l.031.03.014.015-.225.045-.029-.09-.016-.045c-.586.184-2.016.352-2.835.27l-1.304-.18c-1.891.225-5.192-.122-6.929.18-.016-.044-.029-.09-.045-.135l.224-.045c-1.216-.151-4.122-.314-5.264.136-.005-.181.074-.07-.045-.181-.28.156-.641-.015-1.035-.045l-.016-.002c-.368-.027-1.082-.08-1.515.047l-.028-.007c-.271-.063-.782-.183-1.14-.128-.483.075-1.148.204-1.62.045v.316c-1.333-.042-3.082.19-4.185 0-.051.144.014.056-.09.134-.277-.298-1.159-.248-1.846-.18-.731.073-2.272-.118-3.193-.27h-1.396c-1.712-.176-4.786-.363-6.478-.09-.765.123-2.633-.103-2.97.225-.392.073-1.312-.218-1.845-.135l-.135.135c-.106.026-.146-.157-.225-.18h-2.34c-.706.089-1.842.072-2.654-.045-.221-.032-1.415.105-1.8.18l-.945-.045c-1.03-.011-1.837-.073-2.88.09-.819.129-1.65.192-2.564-.045-.576.184-1.356.14-1.935.045-.326-.054-.71.024-1.009.084l-.026.006c-.647.132-1.315-.02-1.845-.045-1.101-.051-2.496.257-3.464.136-.847-.107-1.824.239-2.52.134-.766-.115-1.399.04-2.205-.045a32.302 32.302 0 0 0-5.579-.09c-.352.023-1.267-.075-1.665-.135-.611-.092-1.455.07-1.947.165l-.079.015c-.435.084-1.11-.121-1.529-.09l-2.149-.18h-.01c-.477.098-1.389-.006-1.891-.135-.424-.11-1.526.017-1.888.135-.346-.125-1.702 0-2.161.09l-.631-.135c-.269-.053-1.001-.054-1.125-.045-.996.071-1.718.156-2.516.25l-.182.02a63.44 63.44 0 0 0-.36-.09 1.884 1.884 0 0 0-.63.136h-1.394c-1.241.227-2.537.169-3.511 0-.836-.148-1.385.056-1.934.134-.212.03-.34-.184-.631-.134l-.314.134c-.063-.012-.285-.195-.405-.225-.989-.242-1.724.06-2.656-.045-1.834-.207-3.906-.181-6.028 0-.367.03-1.231-.116-1.665-.18l-.245.03-.475.06c-.9-.016-1.886-.12-2.791.045-.478.088-1.041-.127-1.484-.045-.878.164-2.237.077-3.15-.135-.295-.07-.629.049-.809.09-.855.193-1.412-.077-2.205.045-.255.04-.503.2-.81.226-.03-.176-.023-.143-.315-.136-.468.235-1.374.012-1.934 0-1.407-.03-3.437-.3-4.725-.045v-.09l.091-.045c-.29.028-.373-.033-.721-.045-.068.169.014.092-.18.135-.113-.09-2.011-.264-2.565-.135-.243.057-.89-.006-1.259-.09-.604-.137-2.368.106-2.61.18-.246-.311-.998-.13-1.53-.18-.793-.074-1.925.306-2.746.045-.447.125-1.054.256-1.664.135-.975-.193-2.886-.258-4.14-.09l-.291-.08-.203-.055c-.415-.086-1.396-.031-1.756.09-.316-.1-1.613-.337-1.934-.09-.199-.12-1.246-.23-1.588-.267l-.031-.003-1.485.09c-.89-.153-2.087-.08-3.015.09l-.513-.128-.207-.052c-.714-.09-1.516.049-2.025.09-.599.05-1.213-.24-1.664-.315-.168-.03-.522.139-.63.135-.982-.038-2.109-.073-3.105.09-.193.032-.172-.088-.315-.09-.43-.004-1.571.05-1.89.18-.105.105-.028.094-.225.135-.22-.252-.521-.03-.81-.044l-2.347.086-.082.003c-3.16.088-6.298.09-9.404.09-.068.169.013.092-.18.135h-.044c-.233.004-1.131.017-1.351-.09-.209.087-1.543.236-2.026.135-.913-.19-2.019-.191-2.789-.09l-1.168-.09c-.5-.075-1.098.073-1.396.135-.612.13-1.415-.01-2.025.18v-.135l-.225-.045c-.467.158-1.352-.024-1.979.045-1.51.168-2.81.009-4.365.27l-.405-.09c-.315-.06-.964.073-1.216.135v-.045l.091-.09a23.505 23.505 0 0 0-.283-.04l-.032-.005c-.769.4-2.739-.08-3.87-.135l-.406.135c-.474-.178-.921-.163-1.349-.09-.355.06-.836-.164-1.214.045-.321-.146-.859-.196-1.17-.09-.723-.195-1.971-.228-2.835-.045l-2.88-.135c-.765-.03-1.702.165-2.609.045l-.045.18c-.396-.153-1.986-.066-2.43.045-.06-.16-.013-.121-.181-.18-.183-.062-1.134-.165-1.574-.135l-.36.09c-1.544-.14-4.104-.1-5.264.09-1.301.214-3.102-.26-4.23.09l-.765-.09-1.306.09c-.727-.165-1.637-.363-2.293-.135-.063-.223-.171-.198-.45-.18-.277.102-1.176-.122-1.53-.135-.847-.033-2.151-.25-3.015 0l-.09-.046-.18-.09c-.296-.073-1.403-.031-1.531.046l.046.09h-.179c-.083-.078-.984-.184-1.215-.135-.746.158-2.639-.183-3.285.18l-.045-.18c-1.332.36-3.772.058-5.534 0-.05.144.013.057-.09.135-.262-.321-.811-.02-1.215-.09-.705-.124-1.664 0-2.43-.09-.898-.106-1.519-.271-2.384-.135-.37.058-3.22.165-3.781 0-.345.102-.73.012-1.125.09-1.021.202-2.222.298-3.375.45l-.269-.09h-2.16c-1.08.212-1.871.037-2.609.405 0 0-1.073-.205-1.17-.225-.648-.126-.914.178-1.575.09l-.63-.09c-.76.123-1.263.26-2.025.36h-1.259v.135l.045.09h-.09c-.342-.344-.826-.194-1.305-.27-.775-.122-2.021-.153-2.836-.044l-1.125-.091-1.349-.18c-.602.183-2.814.154-3.733 0-.707-.118-1.486.3-2.206.09-1.427-.415-3.378-.31-4.5-.36l-.18-.135c-.364-.098-.99.068-1.395.18-.14.04-.272-.172-.404-.135-.106.122.041.097-.18.135-.347-.27-.724.034-1.035 0-1.244-.135-3.691-.047-4.41.135l-.405-.09c-.391-.08-.714.064-.945.135v-.18c-.613.05-1.042-.055-1.484-.09-1.031-.081-1.724.132-2.655 0-.918-.13-1.918.289-2.655.135-.879-.184-2.363-.198-3.284-.09l-.676-.075-.134-.015h-2.385c-.393-.056-1.143-.073-1.305.09l-.541-.135-.145.03-.484.106-.077-.012c-.719-.112-1.48-.23-2.038-.124l-1.259-.135c-.439.079-1.019-.01-1.44-.09-.815-.155-2.341-.1-3.24.09-.079-.137-.045-.13-.225-.18-.396.194-1.131-.05-1.8.045-.976.14-2.224.043-3.284.225h-1.485c-.345.082-1.626.269-2.025.18-.192-.042-.519-.22-.945-.135-.916.18-3.035.19-4.004 0-.355-.07-.705.098-1.08 0-.947-.244-2.007-.084-2.79-.27l-.54.045c-.371-.066-.905.023-1.17-.18-.159.155-2.163.192-2.52.135h-2.159c-1.231-.217-3.304-.12-4.725.135-.681.122-1.473-.333-1.8.135-.612-.391-1.668-.06-2.744-.27-.837-.164-1.837-.15-2.79 0-.256.04-1.442-.032-1.62-.09-.614.178-3.035.172-3.734.045l-.135.18a2.66 2.66 0 0 0-.855-.09c-.05.145.013.057-.09.135-.336-.344-.738-.048-1.17-.18-.05.145.013.057-.09.135-.164-.124-2.181-.258-2.34-.225-.089.019-.239.173-.405.135-.723-.165-1.67-.13-2.384-.36-.15-.048-.674.173-.945.136-1.417-.195-3.473-.461-4.86-.226-.084-.112-.394-.161-.495-.135-.154.05-.154.089-.315.135-.265-.255-.435-.121-.72 0l-.045-.135c-.146.047-.236-.09-.495-.045-.91.154-2.062.087-2.969 0l-.9.045c-.166-.056-.79-.175-1.215-.09-1.265.253-2.425.052-3.78.27l-1.125-.09c-.794.089-2.039.32-2.789.135-.05.144.013.057-.09.136-.659-.47-2.607.216-3.6 0a5.756 5.756 0 0 0-.9-.091l-.315.136c-.032-.007-.191-.164-.27-.181-.5-.108-2.191.208-2.744.405-.485.173-1.018.015-1.53.135-1.345.316-2.558.007-3.51.45-.047.022-.403-.117-.63-.045-.935.296-2.143-.026-3.194.27-.951-.24-2.125.019-3.285.09-.276.017-.763-.091-1.17-.09-.979.005-1.839.105-2.475.046-.361-.035-.882.114-1.259-.091-.575.258-1.691-.01-2.565.09-1.223.138-3.418.123-4.455-.09h-4.139c-.467-.06-1.657.28-2.07.136-.713-.252-1.621-.136-2.25-.045-.281.04-.863-.233-1.26-.181-.162.02-.564.179-.719.135-.615-.171-1.439.172-2.07.046-.447-.09-1.302.072-1.62 0a2.632 2.632 0 0 0-1.305 0c-.12.027-.561-.162-.675-.226-.208.127-1.9.196-2.25.18-.717-.033-1.255-.288-1.979-.405-.263-.042-.621.069-.765.18-.379-.214-1.321-.241-1.8-.27l-.405.09a32.665 32.665 0 0 0-1.71-.225h-.002l-.493.136c-1.931-.315-4.992-.431-6.614-.226-.452.058-1.133-.081-1.44-.135l-.675.09c-.987-.103-2.058-.147-2.835-.045-.647.085-1.568-.267-2.474-.135h-1.89c-.92.263-2.237.175-3.15.315-.251.039-.77-.2-1.125-.045l-.135.18c-.321.099-.824-.126-1.214 0-.004.18.074.068-.045.18l-.27-.27-.585.045s-1.369-.02-1.395 0l-.135.18c-.651-.356-1.333-.061-2.025.045l-.495-.045c-.14.034-.476.233-.765.18-.461-.084-1.053.167-1.485.135-1.113-.081-1.944-.023-2.789.136l-.27-.091-1.485.046c-1.016.127-1.73-.18-2.43.045h-.09c-.004.179.074.067-.045.179-.075-.103-.093-.125-.225-.18-.125.105-.475.1-.81.09-.049.137-.023.11-.135.18l-.135-.18c-.129.092-.298.085-.45.045-.05.145.013.057-.09.135-.465-.391-2.571-.315-3.914-.36-.889-.03-2.088-.1-3.06-.045-.345.019-.997-.238-1.35-.135-.156.045-.16.163-.45.18-.177-.34-2.374-.062-3.239-.18l-1.125.09c-1.165-.047-2.386.21-3.465.045-.516-.078-1.126.312-1.575.09-.442.177-1.173.137-1.799.046-1.601-.236-4.029.18-5.85-.226l-1.395.09c-.807-.141-1.967.007-2.834-.09-1.981-.22-3.474-.184-5.265 0l-1.754-.045c-2.172.323-4.145.083-5.715.45l-.585-.09c-.381.05-.814.208-1.35.135-.278-.038-.907-.231-1.259-.09l-.045.135-.135-.135c-.341-.115-.716-.048-1.035-.045l-2.43-.134c-.803-.026-1.91.13-2.655 0-.497-.088-1.566-.103-1.8.134-.55-.385-1.246-.057-2.069-.225-.792-.161-2.464-.391-3.42-.045-.038-.118.031-.05-.09-.09-.359-.16-1.962-.002-2.385.226-.068-.17.014-.093-.18-.136-.272-.017-1.054.056-1.35.09l-.224-.09c-.495-.05-.924-.017-1.53 0-.498.015-.845.093-1.26 0-.706-.156-1.511.16-2.16-.045-.728.226-2.613.278-3.24.18l-1.122.27h-.002c-.472.124-3.08-.182-3.24-.27-.613.305-4.267.153-5.265.046-.187-.021-1.582.146-1.619.179-.27-.236-.847-.027-1.44-.135-1.294-.234-2.529-.026-3.915-.315-.05.145.013.057-.09.135-.19-.448-1.811-.22-2.385-.27-2.03-.18-4.292-.087-6.704-.135h-3.554l-1.125.045c-1.1-.198-2.379-.153-3.375.045-.767.153-1.857-.016-2.61.135l-.9-.045c-1.281.158-2.462-.136-3.554.045l-3.015.09c-.45.065-1.12-.05-1.215.135-.147.022-.736-.12-.855-.135-.554-.073-1.288.167-1.8.09-.56-.084-1.42.103-2.069-.045-.212-.048-.584-.092-.855-.045-.913.158-1.746-.317-2.61 0-.05-.145.013-.057-.09-.135-.416.127-2.134.185-3.014.135l-.495-.09c-1.284.09-2.996.199-4.14.045-.495-.066-.647.26-.99.18-.855-.2-2.872-.337-3.644-.135-.075.079-.077.12-.18.18-.234-.312-1.92-.028-2.565-.09-1.379-.133-2.967-.31-4.454-.09-.845.125-1.805-.198-2.385.18 0 0-.59-.207-.63-.225-.231-.1-.64.01-.99 0-.05.145.013.057-.09.135-.102-.165-.546-.101-.855-.09-.012.142.06.039-.045.135-.27-.251-1.654-.161-2.205-.135-.94.045-4.521-.137-5.22-.495-.033.172-.012.147-.134.225-.212-.27-.956-.294-1.35-.315l-.405.135c-1.63-.483-3.585.19-5.76-.135-.23-.034-.413.074-.63.135-.626-.167-1.22-.187-1.799-.18l-.36.135c-2.09-.411-5.65-.246-8.01.136l-.989-.091c-1.744.243-4.387-.176-6.12.09-.398.06-1.036-.032-1.304-.09-.338-.073-.702.03-.997.098V1.17c3.277-.167 6.781.032 9.816-.137v-.18h.045v.045c.118.102.086.115.315.135L12.56.899c2.274-.537 5.764.383 8.774 0 .063.126-.041.068.09.135.064-.164-.027-.07.135-.135.196.146.66-.02 1.08.045l1.304-.045c.37.06.761.175 1.17.09l.495-.135c.428.073 1.369 0 1.89.135.53.137 1.16.284 1.755.36 1.06.137 2.047-.008 3.014.225.91.22 1.923-.077 2.655.045.978.164 2.294-.305 3.33-.045.302-.086.765-.202 1.125-.135.536.102 1.88.019 2.744 0 .14-.003.406-.122.585-.09 1.337.239 3.579.34 4.995.045l.72.09c.975.017 1.745-.02 2.744.045 1.865.12 3.869-.201 5.67.045.284.039.98-.15 1.125-.18.108-.023.276.128.495.09.32-.055 1.08-.17 1.35-.135 2.074.26 4.449.177 6.749.09.312-.012.824.182 1.214.135 2.44-.287 3.996.003 5.985-.27l2.474.09c.403-.069 1.257-.053 1.669-.046h.041c.954.018 2.227-.381 3.195-.223 1.586.256 4.496.242 6.3 0a530 530 0 0 1 1.26.044h2.339c.109.025.205.115.405.09 3.6-.451 8.754.794 12.148.406 1.194-.137 3.005.403 3.96-.046.036.036 1.979.15 2.115.09.063-.067.047-.08.135-.135.365.418 1.944.207 2.609.18l2.115-.225 2.835.045c.502-.09 1.086-.132 1.395-.045l3.194.045c.05-.145-.013-.057.09-.135.514.302 1.326-.104 1.935-.045 1.581.153 3.42-.2 4.77.09h.945c1.406.304 3.004-.04 4.904.09 1.971.135 4.499.218 6.659.315 1.815.082 3.473-.59 5.31-.315l1.125-.09c2.339.294 4.295-.5 6.479-.045.672.14 1.43-.084 1.98-.045.234.017.886.125 1.214.18l.72-.09c.325-.05.635.026.855.09l.72-.045c.423.017 1.225.068 1.53.136.513.112.702-.198 1.26.044.299-.212 1.417.14 1.89-.044.338-.132 2.524-.14 3.644.044l2.025-.135c.807.113 2.135-.448 2.79-.09.622-.271 1.58.039 2.564-.045 1.136-.096 3.093.175 4.23.045l2.07.09c.479-.11 1.422.094 2.385.045.23-.012.616.173.899.046.193.074.899.18 1.305.089.828-.186 2.525.025 3.735-.18h1.62c1.266-.251 2.297-.03 3.914-.225.695-.084 2.021-.264 3.015-.405.463-.066 1.237.136 1.845.136.05-.146-.013-.058.09-.136.348.444 1.811-.035 2.114 0 .959.113 1.916-.102 2.925-.225.802-.098 2.074.013 2.925-.135l.9.09c1.282-.15 3.135.277 4.814.09.629-.07 1.719-.122 2.7.045l.63-.09c.27.1.419-.038.81 0 .618.06 1.156 0 1.845.135.89.173 1.941.023 2.654 0 .346-.012.984.203 1.395.27.271.044.915-.156 1.17-.09.593.153 1.371.15 1.98.18l.72-.045c1.297.384 2.667.34 3.914.135.354-.058.8.305 1.305.225a5.249 5.249 0 0 1 1.845.045c.51.098 1.157-.107 1.575-.18.435-.076 1.098.124 1.799 0 .014.13-.055.118.135.135.2.053.729-.1.945-.09 1.023.042 2.258.043 3.15.226.568.115 1.051-.226 1.62-.046.103-.032 1.669-.18 1.89-.135.9.184 1.73.08 2.744.045 1.415-.048 3.066.306 4.23.045h1.26c.108.01.112.147.27.135 1.34-.1 3.032.09 4.364-.09l2.115.046 3.15-.226c.749-.083 1.295.015 1.889-.225v.18c.418-.107 1.27-.142 1.665-.18h.81c.5-.311 1.32.013 2.205-.27 1.481-.473 3.723-.323 5.489-.495l1.125.135 1.71-.18c.926.015 2.06.116 2.97-.09h1.979c1.229-.122 2.761-.053 3.87-.225.768-.12 1.503.241 2.205-.089.065.164-.028.068.135.134.647.309 1.646-.07 2.204 0 1.384.173 3.523-.177 5.04.18l.63-.09c.769.137 2.989.516 3.869.225.464.158 1.112.099 1.755.135 1.509.083 3.501.31 4.995 0 .36-.075 1.644.186 2.114.225.316.027 1.312-.118 1.71-.18l1.305.09c.878.074 1.79-.233 2.385-.135.94.156 2.867.454 4.004.18.016.142-.071.052.045.135l1.62-.045c.235-.015.431-.141.72-.18.694-.093 1.193.123 2.115.045.156-.013.515-.108.585-.09.151.04.693.21.9.225.236.017.461-.151.54-.18.207-.074 1.171.005 1.439-.045.113-.021.306.087.45.09.736.015 1.395.023 2.115-.09l3.51.36c2.946-.001 7.11.202 10.259-.225.759-.102 1.546.005 2.294-.135.408-.076.789.07 1.08.135l.495-.135c.195-.04.302.073.405.09.273.045.702-.043.991-.09.809-.132 2.019.046 2.699.18l.585-.09c1.153.19 2.525.346 3.869.18l.045.135c.162-.094 2.858-.042 3.554 0 .632.039 1.366-.034 1.981 0l.359-.09c.754.089 1.74.094 2.656.18l.269-.09c.613.104 1.359.204 2.34.09 1.865-.216 3.986.082 5.31-.044.495-.048 1.561.342 2.25 0 .073.03.641.196.899.134 1.099-.262 3.294-.281 4.5-.134 1.127.135 2.102-.198 3.104-.046 2.91.44 6.136.605 8.504.315.542-.066 1.055.158 1.664.225.202.022 1.33-.116 1.441-.09.167.04.399.169.63.09.158-.054.151-.173.405-.225.106.29.844.34 1.17.18.753.352 3.383.266 4.184-.09.07-.076-.05-.054.089-.135.332.326 1.244-.132 1.846-.045 1.281.186 2.497.236 3.779 0h.945c.177-.058 3.216-.19 3.509-.045.879-.371 2.348-.193 3.375-.36.776-.126 2.847-.293 3.826-.09.45.094 1.189-.017 1.529-.135.072-.025 1.135.207 1.215.225 0 0 1.539.017 1.62 0l.074-.03.151-.06c.877.205 1.992.225 2.969.09l1.98.135c.336.045.739-.111 1.215-.045.416.057 1.516.087 2.204-.045l.631.09c.467.079 1.237-.043 1.485-.09.631-.118 1.596.078 1.979-.225h.001l.044.09v.045c.414.203.945-.05 1.44.045.136.026 1.232.194 1.44.135.099-.028.314-.146.54-.09.761.188 2.016.452 2.925.135v.09c.063-.066.034-.045.136-.09.121.313 1.878.25 2.518.36.514.088 1.027-.095 1.53-.09.226.002.52.13.72.18l.765-.225c.076-.028.573.152.719.18l1.081-.135c.05.145-.013.057.09.135.148-.091 2.655-.291 3.06-.18.105.03.133.164.358.135.649-.084 2.218-.074 3.241-.135.134-.007.303-.124.405-.09.716.238 1.776.294 2.655.225a68.576 68.576 0 0 1 8.684-.09v-.18h.091c.232.273 1.936.406 2.564.315l.629-.09c1.268.222 4.192.528 5.399.18.201-.058.347.062.451.09l1.935-.045.03-.154.015-.071h.226v.18c.418.266 1.628-.042 2.338-.045 1.199-.004 2.349-.1 3.555-.045.355.016.828-.246 1.305-.18.383.053.937-.046 1.575-.045 1.127 0 2.51.069 3.509 0l1.485.135c1.516-.085 2.566-.12 3.96-.045.259.014.616-.092.899-.135l1.665.045c.735-.152 2.319-.114 3.195 0l.074-.006 1.141-.083.672.089h.003c.626.038 1.116-.008 1.53-.134.281-.086.332.1.584.089.265-.011.365-.14.585-.09.016-.141-.071-.051.046-.135.359.343 1.052-.212 1.529-.135.89.144 2.106.054 3.105-.135l1.35.045c.804-.101 1.838.017 2.834.225l1.62-.135c.109.023.203.15.404.09.071-.021-.006-.163.136-.135 0 0 .179.168.225.18.143.038 1.568.047 1.575.045.533-.086 1.508-.272 2.16-.18 1.159.164 2.759.263 3.554.225 1.297-.061 2.543.452 3.825.046.014.045.03.089.045.134.982-.445 3.193.388 4.769.135l1.125-.135c.118.03.382.144.629.09 1.153-.248 2.756-.26 3.691-.045.405.093.862-.084 1.08-.134.504-.12 1.457.03 2.046.123l.068.01c.206.033.611-.106.765-.09.693.077 1.496.095 2.205.136l.81-.045c.08.065.273.093.584.09.434.155 1.231-.114 1.531-.045.145.033.513.226.855.135.17-.045.272-.218.405-.18v.135c.825.106 2.885.289 3.284 0 0 0 1.591.078 1.799.045.367-.058.883-.185 1.171-.18l.27.135.855-.09c.847.15 2.091.095 2.924.27.129.027 1.758-.066 1.891-.09l.009-.004.305-.131c1.314.228 3.904.142 5.311-.09l.254.127.015.008 1.124-.09c.09.036.111.156.314.135 1.184-.116 2.526-.102 3.646.09.451.077 1.007-.171 1.53-.09 1.182.185 2.728.136 3.779.135.336 0 .731.056 1.08.135.304.069.74.005.9-.135.341.363 1.302.018 1.845.09 1.049.139 3.538-.18 4.41-.36.504-.104 1.877.026 2.429.135h2.025l.675-.18c.84.1 1.7.228 2.34.09l.254.085.015.005c.422.072 1.186.062 1.531-.045.065.165-.027.068.135.135.616.298 1.288-.006 1.934.09 1.075.16 3.171-.333 4.274 0l2.521-.09c.41.077.917.119 1.215.136.126.006.505-.141.583-.136.19.013.576.132.811.18l.945-.044c.64.138 1.985.12 2.52-.046l.766.046c.612-.076 1.101-.025 1.843-.136l.361.09h.001c.652-.038 1.507-.088 2.068.046l.54-.091c.961.06 2.101.009 2.835-.135 1.255-.245 2.876.375 4.274 0 .065.165-.028.068.135.135.697-.448 3.105.18 4.454-.135.342-.08 1.102.01 1.396-.045 2.668-.506 6.676.233 9.179-.18 1.624-.267 2.763.205 3.958-.225l.045.045a6.7 6.7 0 0 1-.084.17l-.005.01h.225c.15-.093.041-.055.225 0 .051-.184-.003-.128.18-.18v.135c.549.052 1.589.179 2.116-.044.542.189 1.41.292 1.843.134.807.229 2.461.329 3.06.225.298-.052 1.222.217 1.35 0 .032-.02 1.638.21 1.98.18 1.541-.14 3.486-.065 4.95-.27l.225.03.45.06c.972.02 1.669-.04 2.563.09.606.089 1.861-.092 2.386-.18.157-.026.527.195.72 0 .205.13 1.01.143 1.17.045.632.315 2.792.273 3.869.27l.014-.023c.061-.099.088-.143.211-.202.158.135 1.622.135 2.017.135h.008c.051-.103.041-.116.135-.18.061.142.04.117.18.18.178-.123.234.046.539 0 .355-.052 1.344.107 1.801-.045Z"/></svg>